# AST/ASF file generated using VICON BodyLanguage
# -----------------------------------------------
:version 1.10
:name VICON
:units
  mass 1.0
  length 0.45
  angle deg
:documentation
   .ast/.asf automatically generated from VICON data using
   VICON BodyBuilder and BodyLanguage model FoxedUp or BRILLIANT.MOD
:root
   order TX TY TZ RX RY RZ
   axis XYZ
   position 0 0 0  
   orientation 0 0 0 
:bonedata
  begin
     id 1 
     name lhipjoint
     direction 0.61886 -0.69539 0.365302 
     length 2.20474 
     axis 0 0 0  XYZ
  end
  begin
     id 2 
     name lfemur
     direction 0.34202 -0.939693 0  
     length 6.65149  
     axis 0 0 20  XYZ
    dof rx ry rz
    limits (-160.0 20.0)
           (-70.0 70.0)
           (-60.0 70.0)
  end
  begin
     id 3 
     name ltibia
     direction 0.34202 -0.939693 0   
     length 6.35814   
     axis 0 0 20   XYZ
    dof rx
    limits (-10.0 170.0)
  end
  begin
     id 4 
     name lfoot
     direction 0.101224 -0.278109 0.955201   
     length 2.18766   
     axis -90 7.62852e-016 20   XYZ
    dof rx rz
    limits (-45.0 90.0)
           (-70.0 20.0)
  end
  begin
     id 5 
     name ltoes
     direction 1.53524e-011 -4.21877e-011 1   
     length 1.09206   
     axis -90 7.62852e-016 20   XYZ
    dof rx
    limits (-90.0 20.0)
  end
  begin
     id 6 
     name rhipjoint
     direction -0.600207 -0.708087 0.371972   
     length 2.1652  
     axis 0 0 0  XYZ 
  end
  begin
     id 7 
     name rfemur
     direction -0.34202 -0.939693 0   
     length 6.54691   
     axis 0 0 -20   XYZ
    dof rx ry rz
    limits (-160.0 20.0)
           (-70.0 70.0)
           (-70.0 60.0)
  end
  begin
     id 8 
     name rtibia
     direction -0.34202 -0.939693 0   
     length 6.37474   
     axis 0 0 -20   XYZ
    dof rx
    limits (-10.0 170.0)
 end
 begin
     id 9 
     name rfoot
     direction -0.111266 -0.3057 0.945604   
     length 2.00903  
     axis -90 -7.62852e-016 -20   XYZ
    dof rx rz
    limits (-45.0 90.0)
           (-20.0 70.0)
  end
  begin
     id 10 
     name rtoes
     direction -1.5362e-011 -4.21913e-011 1   
     length 1.00221   
     axis -90 -7.62852e-016 -20   XYZ
    dof rx
    limits (-90.0 20.0)
  end
  begin
     id 11 
     name lowerback
     direction -0.0224561 0.999731 -0.00577314   
     length 2.10409   
     axis 0 0 0   XYZ
    dof rx ry rz
    limits (-20.0 45.0)
           (-30.0 30.0)
           (-30.0 30.0)
  end
  begin
     id 12 
     name upperback
     direction 0.0213126 0.999185 -0.0342817   
     length 2.09783   
     axis 0 0 0   XYZ
    dof rx ry rz
    limits (-20.0 45.0)
           (-30.0 30.0)
           (-30.0 30.0)
  end
  begin
     id 13 
     name thorax
     direction 0.0312356 0.999036 -0.0308451   
     length 2.09788   
     axis 0 0 0   XYZ
    dof rx ry rz
    limits (-20.0 45.0)
           (-30.0 30.0)
           (-30.0 30.0)
  end
  begin
     id 14 
     name lowerneck
     direction -0.0114419 0.996481 0.0830329   
     length 1.38575   
     axis 0 0 0   XYZ
    dof rx ry rz
    limits (-20.0 45.0)
           (-30.0 30.0)
           (-30.0 30.0)
  end
  begin
     id 15 
     name upperneck
     direction -0.0075675 0.996187 -0.0869092   
     length 1.39401   
     axis 0 0 0   XYZ
    dof rx ry rz
    limits (-20.0 45.0)
           (-30.0 30.0)
           (-30.0 30.0)
  end
  begin
     id 16
     name head
     direction -0.00222073 0.999264 -0.0382974  
     length 1.3964  
     axis 0 0 0   XYZ
    dof rx ry rz
    limits (-20.0 45.0)
           (-30.0 30.0)
           (-30.0 30.0)
  end
  begin
     id 17 
     name lclavicle
     direction 0.965962 0.222138 0.132556  
     length 2.81514  
     axis 0 0 0   XYZ
    dof ry rz
    limits (-20.0 10.0)
           (0.0 20.0)
  end
  begin
     id 18 
     name lhumerus
     direction 1 -4.48972e-011 7.03471e-018   
     length 4.47366   
     axis 180 -30 -90   XYZ
    dof rx ry rz
    limits (-60.0 90.0)
           (-90.0 90.0)
           (-90.0 90.0)
  end
  begin
     id 19
     name lradius
     direction 1 -4.48951e-011 -6.22192e-028   
     length 3.19948   
     axis 180 -30 -90   XYZ
    dof rx
    limits (-10.0 170.0)
  end
  begin
     id 20
     name lwrist
     direction 1 -4.48967e-011 -1.24264e-027   
     length 1.59974   
     axis 1.40095e-015 90 90   XYZ
    dof ry
    limits (-180.0 0.0)
 end
  begin
     id 21 
     name lhand
     direction 1 -4.4897e-011 -2.48528e-027   
     length 0.492667   
     axis 1.58582e-015 90 90   XYZ
    dof rx rz
    limits (-90.0 90.0)
           (-45.0 45.0)
  end
  begin
     id 22 
     name lfingers
     direction 1 -4.48996e-011 -4.97056e-027   
     length 0.397201   
     axis 3.17164e-015 90 90   XYZ
    dof rx
    limits (0.0 90.0)
  end
  begin
     id 23
     name lthumb
     direction 0.707107 -6.34981e-011 0.707107   
     length 0.570303   
     axis -90 45 2.85299e-015   XYZ
    dof rx rz
    limits (-45.0 45.0)
           (-45.0 45.0)
  end
  begin
     id 24 
     name rclavicle
     direction -0.961164 0.229034 0.153972   
     length 3.09348  
     axis 0 0 0   XYZ 
    dof ry rz
    limits (-10.0 20.0)
           (-20.0 0.0)
  end
  begin
     id 25 
     name rhumerus
     direction -1 -4.48971e-011 -9.06263e-028  
     length 4.3269   
     axis 180 30 90   XYZ
    dof rx ry rz
    limits (-90.0 60.0)
           (-90.0 90.0)
           (-90.0 90.0)
  end
  begin
     id 26 
     name rradius
     direction -1 -4.48953e-011 1.44659e-027   
     length 3.1896   
     axis 180 30 90   XYZ
    dof rx
    limits (-10.0 170.0)
  end
  begin
     id 27 
     name rwrist
     direction -1 -4.48988e-011 -1.24264e-027   
     length 1.5948   
     axis 1.40095e-015 -90 -90   XYZ
    dof ry
    limits (-180.0 0.0)
  end
  begin
     id 28
     name rhand
     direction -1 -4.49033e-011 -2.48528e-027   
     length 0.464496   
     axis 1.58582e-015 -90 -90   XYZ
    dof rx rz
    limits (-90.0 90.0)
           (-45.0 45.0)
  end
  begin
     id 29
     name rfingers
     direction -1 -4.48905e-011 -4.97056e-027   
     length 0.374489   
     axis 3.17164e-015 -90 -90   XYZ
    dof rx
    limits (0.0 90.0)
  end
  begin
     id 30
     name rthumb
     direction -0.707107 -6.34909e-011 0.707107   
     length 0.537693   
     axis -90 -45 -2.85299e-015   XYZ
    dof rx rz
    limits (-45.0 45.0)
           (-45.0 45.0)
  end
:hierarchy
  begin
    root lhipjoint rhipjoint lowerback
    lhipjoint lfemur
    lfemur ltibia
    ltibia lfoot
    lfoot ltoes
    rhipjoint rfemur
    rfemur rtibia
    rtibia rfoot
    rfoot rtoes
    lowerback upperback
    upperback thorax
    thorax lowerneck lclavicle rclavicle
    lowerneck upperneck
    upperneck head
    lclavicle lhumerus
    lhumerus lradius
    lradius lwrist
    lwrist lhand lthumb
    lhand lfingers
    rclavicle rhumerus
    rhumerus rradius
    rradius rwrist
    rwrist rhand rthumb
    rhand rfingers
  end

#!OML:ASF G:\acrobat\cartwheel_test 2\Patient 1\Session 2\acrobat4.ASF
:FULLY-SPECIFIED
:DEGREES
2086
root 11.3744 26.1756 28.4961 181.591 38.0472 893.202
lowerback -1.52661 1.23649 -3.37747
upperback 0.070789 1.70355 1.74066
thorax 0.77728 0.839094 3.72019
lowerneck -18.2976 -1.45597 -3.01574
upperneck 36.8267 4.54109 -6.9999
head 16.5462 1.35299 -1.41041
rclavicle 7.87187e-014 -3.33958e-014
rhumerus -25.7914 -7.87448 -66.9085
rradius 31.3731
rwrist -1.9345
rhand -12.5132 -744.693
rfingers 7.12502
rthumb 13.5624 -54.2309
lclavicle 7.87187e-014 -3.33958e-014
lhumerus -36.8509 6.26516 76.2764
lradius 26.0718
lwrist 19.8535
lhand -30.5742 -354.721
lfingers 7.12502
lthumb -3.872 -324.777
rfemur -13.6675 21.9241 16.2824
rtibia 40.63
rfoot -45.0547 -29.3423
rtoes 27.152
lfemur -29.5876 4.91474 -22.1537
ltibia 44.9468
lfoot 156.44 -177.979
ltoes -7.2901
2087
root 11.3703 26.1899 28.5069 181.725 37.2663 893.234
lowerback -1.50562 1.17669 -3.67319
upperback 0.127098 1.62813 1.8108
thorax 0.819997 0.798082 3.95887
lowerneck -18.7555 -1.14948 -2.13792
upperneck 37.1759 4.89418 -7.24142
head 16.8794 1.58457 -1.61135
rclavicle 5.03919e-014 -3.02153e-014
rhumerus -25.7065 -8.10104 -67.1528
rradius 30.7948
rwrist -1.07495
rhand -11.806 -744.428
rfingers 7.12502
rthumb 14.2439 -53.92
lclavicle 5.03919e-014 -3.02153e-014
lhumerus -37.2913 7.35152 76.2487
lradius 25.9431
lwrist 17.5062
lhand -29.5231 -352.156
lfingers 7.12502
lthumb -2.85689 -322.195
rfemur -13.3942 21.6939 16.2802
rtibia 40.4484
rfoot -46.0482 -27.9416
rtoes 29.6187
lfemur -29.1578 4.03027 -21.5648
ltibia 44.2629
lfoot 156.734 -176.27
ltoes -6.38027
2088
root 11.364 26.1972 28.5097 182.009 36.5189 893.435
lowerback -1.58467 1.1209 -3.79872
upperback 0.18335 1.55883 1.86996
thorax 0.923929 0.759425 4.09282
lowerneck -18.9611 -0.938843 -1.37706
upperneck 37.3225 5.05122 -7.42729
head 17.035 1.73161 -1.80216
rclavicle 8.19987e-014 3.33958e-014
rhumerus -25.6984 -8.37087 -67.4955
rradius 30.3515
rwrist -0.530171
rhand -11.4918 -744.25
rfingers 7.12502
rthumb 14.5467 -53.7197
lclavicle 8.19987e-014 3.33958e-014
lhumerus -37.7091 8.27289 76.3078
lradius 25.6531
lwrist 15.966
lhand -28.8096 -351.475
lfingers 7.12502
lthumb -2.16778 -321.506
rfemur -13.3461 21.4451 16.3923
rtibia 40.2912
rfoot -46.3983 -27.6647
rtoes 30.2928
lfemur -28.8317 3.04493 -20.7169
ltibia 43.7003
lfoot 156.736 -174.828
ltoes -5.9146
2089
root 11.3553 26.2015 28.5114 182.406 35.8132 893.707
lowerback -1.74179 1.07343 -3.92541
upperback 0.231913 1.50379 1.95327
thorax 1.06216 0.727129 4.25447
lowerneck -18.9114 -0.816239 -0.814523
upperneck 37.1957 5.03919 -7.54957
head 16.965 1.79127 -1.95707
rclavicle -6.40087e-014 7.4743e-014
rhumerus -25.9709 -7.47109 -68.0911
rradius 30.4377
rwrist -1.19947
rhand -12.9228 -745.091
rfingers 7.12502
rthumb 13.1676 -54.6552
lclavicle -6.40087e-014 7.4743e-014
lhumerus -38.047 8.60872 76.67
lradius 25.1449
lwrist 15.8422
lhand -28.6422 -352.678
lfingers 7.12502
lthumb -2.00611 -322.707
rfemur -13.3902 21.4778 16.5735
rtibia 40.1294
rfoot -46.8761 -27.7074
rtoes 30.8285
lfemur -28.6383 2.05987 -19.7379
ltibia 43.3043
lfoot 156.465 -173.717
ltoes -5.56936
2090
root 11.344 26.2054 28.5118 182.786 35.2592 893.949
lowerback -1.96786 1.03994 -4.07473
upperback 0.346083 1.47077 1.97061
thorax 1.30594 0.70106 4.36352
lowerneck -18.8529 -0.738803 -0.323679
upperneck 37.0046 4.88997 -7.52868
head 16.8411 1.79555 -2.0621
rclavicle 5.05907e-014 1.59028e-015
rhumerus -26.4333 -5.5961 -69.0871
rradius 31.029
rwrist -2.7176
rhand -15.2185 -746.951
rfingers 7.12502
rthumb 10.954 -56.6449
lclavicle 5.05907e-014 1.59028e-015
lhumerus -38.1967 8.7942 76.9857
lradius 24.7562
lwrist 15.8339
lhand -28.5178 -353.487
lfingers 7.12502
lthumb -1.88604 -323.515
rfemur -13.493 21.6312 16.7267
rtibia 39.9934
rfoot -47.2011 -28.0546
rtoes 30.9362
lfemur -28.4475 1.22735 -18.7762
ltibia 43.0325
lfoot 156.261 -172.683
ltoes -5.34972
2091
root 11.3264 26.2092 28.5094 183.125 34.8156 894.122
lowerback -2.24346 1.01385 -4.21062
upperback 0.515461 1.45055 1.90706
thorax 1.63579 0.677423 4.38319
lowerneck -18.7598 -0.670508 0.322963
upperneck 36.5978 4.65533 -7.64238
head 16.5982 1.75784 -2.26797
rclavicle -6.92765e-014 -1.59028e-015
rhumerus -26.6603 -4.67018 -70.0564
rradius 31.3659
rwrist -3.387
rhand -15.7618 -747.709
rfingers 7.12502
rthumb 10.43 -57.4302
lclavicle -6.92765e-014 -1.59028e-015
lhumerus -38.2204 8.84362 77.4089
lradius 24.6597
lwrist 16.205
lhand -28.7864 -353.953
lfingers 7.12502
lthumb -2.14538 -323.984
rfemur -13.6663 21.7199 16.7719
rtibia 39.9127
rfoot -47.3455 -28.4554
rtoes 30.8093
lfemur -28.2235 0.772364 -17.9814
ltibia 42.8328
lfoot 156.437 -171.784
ltoes -5.02426
2092
root 11.3035 26.2102 28.5057 183.398 34.443 894.257
lowerback -2.28968 0.971922 -4.46012
upperback 0.55315 1.40347 1.88492
thorax 1.70061 0.648491 4.50174
lowerneck -18.8732 -1.009 -0.222126
upperneck 36.3828 4.01114 -7.10286
head 16.4411 1.46102 -2.05628
rclavicle -2.75317e-014 -3.97569e-014
rhumerus -26.9652 -4.05854 -70.9196
rradius 31.5348
rwrist -3.56344
rhand -15.1787 -747.401
rfingers 7.12502
rthumb 10.9924 -57.0933
lclavicle -2.75317e-014 -3.97569e-014
lhumerus -38.4333 8.36003 78.1915
lradius 24.6954
lwrist 17.5582
lhand -29.6381 -354.978
lfingers 7.12502
lthumb -2.968 -325.019
rfemur -13.8161 22.0072 16.7938
rtibia 39.8807
rfoot -47.6575 -28.8171
rtoes 30.9003
lfemur -27.9485 0.607913 -17.3117
ltibia 42.6839
lfoot 157.038 -171.192
ltoes -4.42121
2093
root 11.2762 26.2115 28.5004 183.57 34.0635 894.34
lowerback -2.10007 0.884407 -4.76209
upperback 0.498346 1.28584 1.84117
thorax 1.54534 0.591793 4.6187
lowerneck -18.8086 -1.56681 -0.668358
upperneck 36.0017 3.00913 -6.71301
head 16.1541 1.00748 -1.99432
rclavicle 4.00551e-014 3.18055e-015
rhumerus -27.2048 -3.71133 -71.9388
rradius 31.4008
rwrist -3.15577
rhand -14.9923 -746.997
rfingers 7.12502
rthumb 11.1722 -56.68
lclavicle 4.00551e-014 3.18055e-015
lhumerus -38.7776 7.89936 78.7757
lradius 24.7155
lwrist 18.4659
lhand -29.7384 -355.158
lfingers 7.12502
lthumb -3.06481 -325.201
rfemur -13.8799 22.5943 16.8123
rtibia 39.8914
rfoot -48.2989 -29.2108
rtoes 31.3457
lfemur -27.5944 0.430892 -16.7479
ltibia 42.5824
lfoot 158.051 -171.017
ltoes -4.02571
2094
root 11.2431 26.2129 28.4913 183.639 33.7595 894.272
lowerback -1.86084 0.776837 -5.17212
upperback 0.42165 1.13973 1.75508
thorax 1.34286 0.522309 4.75173
lowerneck -18.4245 -2.12888 -1.70497
upperneck 35.5233 2.04097 -5.86169
head 15.7545 0.55879 -1.61444
rclavicle 6.75868e-015 -1.19271e-014
rhumerus -27.2559 -3.68671 -73.0103
rradius 31.0011
rwrist -2.05358
rhand -15.1379 -746.667
rfingers 7.12502
rthumb 11.0318 -56.3569
lclavicle 6.75868e-015 -1.19271e-014
lhumerus -39.1552 7.71118 79.1927
lradius 24.8098
lwrist 18.918
lhand -29.473 -354.235
lfingers 7.12502
lthumb -2.80851 -324.274
rfemur -13.954 23.1078 16.6433
rtibia 39.933
rfoot -48.933 -29.4579
rtoes 31.82
lfemur -27.1728 0.252788 -16.4208
ltibia 42.5122
lfoot 159.354 -171.151
ltoes -4.12085
